<svg width="193" height="35" viewBox="0 0 193 35" fill="none" xmlns="http://www.w3.org/2000/svg">
<path d="M0.35 -2.38419e-06V35H7.95V20.95H29.1V14.1H7.95V6.9H30.15V-2.38419e-06H0.35ZM42.5672 35V-2.38419e-06H34.9672V35H42.5672ZM74.7129 25.15H73.8129L58.5129 0.049997H57.8129V-2.38419e-06H47.5629V35H55.1629V9.9H56.0129L71.3629 35H82.3129V-2.38419e-06H74.7129V25.15Z" fill="#96FC04"/>
<path d="M112.313 0.049997H99.5629L87.0629 35H94.9129L97.0129 29.25H114.863L116.913 35H124.813L112.313 0.049997ZM99.4629 22.3L104.963 6.95H106.913L112.363 22.3H99.4629ZM153.79 24.3V16.75H129.59V24.3H153.79ZM158.543 -2.38419e-06V6.95H181.293V7.7L158.543 27.85V35H160.143H160.193H192.593V28.05H169.993V27.15L192.593 7.2V-2.38419e-06H158.543Z" fill="white"/>
</svg>
